<?xml version="1.0" encoding="iso-8859-1"?>
<!-- Generator: Adobe Illustrator 19.0.0, SVG Export Plug-In . SVG Version: 6.00 Build 0)  -->
<svg version="1.1" id="Layer_1" xmlns="http://www.w3.org/2000/svg" xmlns:xlink="http://www.w3.org/1999/xlink" x="0px" y="0px"
	 viewBox="0 0 512.001 512.001" style="enable-background:new 0 0 512.001 512.001;" xml:space="preserve">
<path style="fill:#414042;" d="M145.094,314.018V124.731v-4.15c0-61.738,49.743-111.787,111.785-111.787
	c62.314,0,111.787,50.049,111.787,111.785v38.198v155.278L145.094,314.018z"/>
<path style="fill:#E0A88F;" d="M198.541,255.25l-0.516,44.082c0,0,18.697,24.35,52.613,24.35c40.873,0,64.497-24.35,64.497-24.35
	l0.599-45.607L198.541,255.25z"/>
<path style="fill:#D49481;" d="M248.973,285.069c4.887,4.01,13.268,9.794,25.011,13.104c18.811,5.301,34.698,0.994,41.152-1.16
	c0.199-14.429,0.399-28.859,0.599-43.288L248.973,285.069z"/>
<ellipse style="fill:#F2C6A0;" cx="256.576" cy="158.748" rx="89.491" ry="126.769"/>
<path style="fill:#E6B593;" d="M256.58,31.986c-6.156,0-12.167,0.881-17.972,2.558c40.811,11.786,71.519,62.917,71.519,124.21
	c0,61.291-30.708,112.423-71.519,124.21c5.806,1.677,11.817,2.558,17.972,2.558c49.425,0,89.492-56.755,89.492-126.767
	C346.073,88.742,306.005,31.986,256.58,31.986z"/>
<path style="fill:#58595B;" d="M368.666,120.581c0-61.738-50.049-111.785-111.785-111.785l0,0
	c-61.738,0-111.785,50.049-111.785,111.785v4.149l0.094,0.003c32.732-0.14,62.151-17.689,82.523-45.563
	c12.574,59.379,58.06,79.819,58.06,79.819l40.137-0.103l41.598-0.766l1.16-0.484v-37.055H368.666z"/>
<path style="fill:#414042;" d="M256.881,8.796L256.881,8.796c-7.313,0-14.459,0.711-21.379,2.051
	c51.51,9.978,90.407,55.31,90.407,109.735l0.001,38.294l42.458-0.096h0.299v-38.198C368.666,58.844,318.617,8.796,256.881,8.796z"/>
<path style="fill:#F1F2F2;" d="M491.96,451.999L491.96,451.999v37.49c0,0-13.603,13.914-19.615,13.914s-13.603-13.914-19.615-13.914
	s-13.603,13.914-19.615,13.914s-13.603-13.914-19.615-13.914s-13.603,13.914-19.615,13.914s-13.603-13.914-19.615-13.914
	c-6.012,0-13.603,13.914-19.615,13.914c-6.012,0-13.603-13.914-19.615-13.914c-6.012,0-13.603,13.914-19.615,13.914
	c-6.012,0-13.603-13.914-19.615-13.914c-6.012,0-13.603,13.914-19.615,13.914c-6.012,0-13.603-13.914-19.615-13.914
	c-6.012,0-13.603,13.914-19.615,13.914s-13.603-13.914-19.615-13.914s-13.603,13.914-19.615,13.914
	c-6.012,0-13.603-13.914-19.615-13.914c-6.012,0-13.603,13.914-19.615,13.914c-6.012,0-13.603-13.914-19.615-13.914
	s-13.603,13.914-19.615,13.914c-6.012,0-13.603-13.914-19.615-13.914c-6.012,0-13.603,13.914-19.615,13.914
	c-6.012,0-13.603-13.914-19.615-13.914s-13.603,13.914-19.615,13.914s-19.615-13.914-19.615-13.914v-37.49l0,0
	c0-63.849,43.405-119.526,105.325-135.103l48.584-13.511l22.932-6.373c0,0,19.132,24.35,54.062,24.35
	c38.698,0,63.032-24.35,63.032-24.35l20.186,4.97l54.136,13.327c60.533,16.584,102.501,71.598,102.501,134.362v2.327H491.96z"/>
<path style="fill:#D1D3D4;" d="M254.712,343.575c33.262,0,62.668-16.43,80.605-41.598l-20.165-4.964c0,0-24.35,24.35-63.048,24.35
	c-34.93,0-54.062-24.35-54.062-24.35l-22.93,6.377C193.133,327.763,222.072,343.575,254.712,343.575z"/>
<circle cx="217.535" cy="174.007" r="8.696"/>
<path d="M229.645,238.796c8.885,7.109,18.284,10.712,27.948,10.712c0.154,0,0.308-0.001,0.461-0.002
	c8.441-0.1,16.664-2.959,24.438-8.5c3.911-2.787,4.822-8.217,2.035-12.128c-2.785-3.911-8.219-4.824-12.128-2.034
	c-4.829,3.441-9.725,5.215-14.551,5.272c-0.08,0.001-0.161,0.001-0.242,0.001c-5.622,0-11.372-2.32-17.092-6.899
	c-3.75-3.001-9.224-2.393-12.223,1.357C225.288,230.323,225.895,235.796,229.645,238.796z"/>
<path d="M391.176,306.822c-0.073-0.021-0.145-0.038-0.218-0.057l-67.611-16.645l0.46-33.307c0.871-1.148,1.733-2.311,2.578-3.507
	c16.457-23.311,26.103-53.549,27.581-85.917l5.124-0.015v103.588c0,4.803,3.892,8.696,8.696,8.696s8.696-3.894,8.696-8.696
	l0.3-150.48C376.783,54.048,322.735,0,256.3,0c-0.05,0-0.1,0.002-0.15,0.002C256.1,0.002,256.05,0,256,0
	c-66.434,0-120.482,54.048-120.482,120.482v184.627l-11.8,3.281C57.892,325.002,11.925,384,11.925,451.901v37.49
	c0,2.273,0.889,4.455,2.478,6.079c7.372,7.541,17.84,16.531,25.834,16.531c6.666,0,11.638-5.087,16.026-9.574
	c0.994-1.017,2.434-2.489,3.589-3.511c1.156,1.022,2.596,2.494,3.591,3.511c4.386,4.487,9.36,9.574,16.024,9.574
	c6.666,0,11.639-5.087,16.026-9.574c0.994-1.017,2.435-2.489,3.59-3.511c1.155,1.022,2.594,2.494,3.589,3.511
	c4.388,4.487,9.36,9.574,16.026,9.574c6.666,0,11.639-5.087,16.027-9.575c0.994-1.016,2.434-2.488,3.589-3.51
	c1.155,1.022,2.595,2.494,3.59,3.511c4.386,4.487,9.36,9.574,16.026,9.574s11.638-5.087,16.026-9.574
	c0.994-1.017,2.434-2.489,3.589-3.511c1.156,1.022,2.596,2.494,3.591,3.511c4.386,4.487,9.36,9.574,16.024,9.574
	c6.666,0,11.639-5.087,16.026-9.574c0.994-1.017,2.435-2.489,3.59-3.511c1.155,1.022,2.594,2.494,3.589,3.511
	c4.388,4.487,9.36,9.574,16.026,9.574c6.666,0,11.639-5.087,16.027-9.575c0.994-1.016,2.434-2.488,3.589-3.51
	c1.155,1.022,2.595,2.494,3.59,3.511c4.386,4.487,9.36,9.574,16.026,9.574s11.638-5.087,16.026-9.574
	c0.994-1.017,2.434-2.489,3.589-3.511c1.156,1.022,2.596,2.494,3.591,3.511c4.386,4.487,9.359,9.574,16.024,9.574
	c6.666,0,11.639-5.087,16.026-9.574c0.994-1.017,2.435-2.489,3.59-3.511c1.155,1.022,2.594,2.494,3.589,3.511
	c4.388,4.487,9.36,9.574,16.026,9.574s11.639-5.087,16.027-9.575c0.994-1.016,2.434-2.488,3.589-3.51
	c1.155,1.022,2.595,2.494,3.59,3.511c4.386,4.487,9.36,9.574,16.026,9.574s11.638-5.087,16.026-9.574
	c0.994-1.017,2.434-2.489,3.589-3.511c1.156,1.022,2.596,2.494,3.591,3.511c4.386,4.487,9.36,9.574,16.024,9.574
	c6.666,0,11.639-5.087,16.026-9.574c0.994-1.017,2.435-2.489,3.59-3.511c1.155,1.022,2.594,2.494,3.589,3.511
	c4.388,4.487,9.36,9.574,16.026,9.574c7.995,0,18.462-8.99,25.834-16.531c1.589-1.624,2.478-3.807,2.478-6.079v-39.819
	C500.076,383.09,455.295,324.39,391.176,306.822z M250.906,312.553c-24.26-0.221-39.594-13.599-44.722-18.903l0.22-17.88
	c14.84,11.967,31.818,18.347,49.597,18.347c18.002,0,35.184-6.544,50.157-18.806l-0.245,17.629
	c-3.264,2.681-9.616,7.362-18.451,11.485C278.07,308.73,265.733,312.416,250.906,312.553z M346.492,150.019
	c-0.328-0.037-0.661-0.061-0.998-0.061c-0.351,0-0.697,0.027-1.038,0.067l-57.241,0.166c-7.783-4.088-41.268-24.244-51.575-72.919
	c-0.71-3.357-3.329-5.982-6.683-6.701c-0.608-0.131-1.22-0.194-1.825-0.194c-2.738,0-5.362,1.296-7.02,3.565
	c-17.426,23.841-41.389,38.615-66.779,41.485c2.646-54.469,47.765-97.977,102.867-98.03
	c56.753,0.108,102.892,46.309,102.892,103.087v29.5L346.492,150.019z M152.911,132.946c25.989-2.297,50.671-14.835,70.262-35.54
	c16.493,48.128,53.146,66.899,57.968,69.19c-0.304,0.187-0.603,0.387-0.889,0.616c-3.751,3-4.36,8.473-1.36,12.223
	c3,3.751,8.473,4.36,12.223,1.36c3.751-3,4.36-8.473,1.36-12.223c-0.294-0.368-0.618-0.697-0.957-1.004l45.054-0.13
	c-1.595,31.548-11.714,59.683-26.992,79.505c-0.899,0.749-1.638,1.678-2.173,2.731c-13.978,16.888-31.896,27.049-51.408,27.049
	c-19.168,0-36.795-9.811-50.662-26.169c-0.409-0.656-0.904-1.251-1.469-1.775c-17.52-21.676-28.664-54.033-28.664-90.127
	c0-4.803-3.892-8.696-8.696-8.696s-8.696,3.894-8.696,8.696c0,35.641,9.874,69.256,27.804,94.654c1.178,1.67,2.383,3.29,3.612,4.863
	l-0.397,32.111l-35.92,9.989L152.911,132.946L152.911,132.946z M482.684,485.74c-3.885,3.665-8.098,7.028-10.514,8.388
	c-1.206-1.009-2.878-2.72-3.992-3.86c-4.388-4.487-9.36-9.574-16.026-9.574s-11.639,5.087-16.026,9.574
	c-0.994,1.017-2.435,2.489-3.59,3.511c-1.155-1.022-2.594-2.494-3.589-3.51c-4.388-4.488-9.361-9.575-16.027-9.575
	s-11.638,5.087-16.026,9.574c-0.994,1.017-2.434,2.489-3.589,3.511c-1.155-1.022-2.595-2.494-3.59-3.511
	c-4.386-4.487-9.36-9.574-16.026-9.574c-6.665,0-11.638,5.087-16.024,9.574c-0.994,1.017-2.435,2.489-3.591,3.511
	c-1.155-1.022-2.594-2.494-3.589-3.511c-4.388-4.487-9.36-9.574-16.026-9.574s-11.639,5.087-16.026,9.574
	c-0.994,1.017-2.435,2.489-3.59,3.511c-1.155-1.022-2.594-2.494-3.589-3.51c-4.388-4.488-9.361-9.575-16.027-9.575
	c-6.666,0-11.638,5.087-16.026,9.574c-0.994,1.017-2.434,2.489-3.589,3.511c-1.155-1.022-2.595-2.494-3.59-3.511
	c-4.386-4.487-9.36-9.574-16.026-9.574c-6.665,0-11.638,5.087-16.024,9.574c-0.994,1.017-2.435,2.489-3.591,3.511
	c-1.155-1.022-2.594-2.494-3.589-3.511c-4.388-4.487-9.36-9.574-16.026-9.574s-11.639,5.087-16.025,9.574
	c-0.994,1.017-2.435,2.489-3.59,3.511c-1.155-1.022-2.594-2.494-3.589-3.51c-4.388-4.488-9.361-9.575-16.027-9.575
	s-11.638,5.087-16.025,9.574c-0.994,1.017-2.434,2.489-3.589,3.511c-1.155-1.022-2.595-2.494-3.59-3.511
	c-4.386-4.487-9.36-9.574-16.025-9.574c-6.665,0-11.638,5.087-16.024,9.574c-0.994,1.017-2.435,2.489-3.591,3.511
	c-1.155-1.022-2.594-2.494-3.589-3.511c-4.388-4.487-9.36-9.574-16.026-9.574s-11.639,5.087-16.026,9.574
	c-0.994,1.017-2.435,2.489-3.59,3.511c-1.155-1.022-2.594-2.494-3.589-3.51c-4.388-4.488-9.361-9.575-16.027-9.575
	s-11.638,5.087-16.026,9.574c-1.114,1.14-2.786,2.851-3.992,3.86c-2.418-1.361-6.63-4.723-10.514-8.388v-33.841
	c0-59.953,40.607-112.042,98.75-126.669c0.07-0.019,0.139-0.036,0.209-0.056l66.335-18.448c7.829,7.88,26.757,23.232,55.448,23.232
	c0.231,0,0.453-0.012,0.683-0.013c0.256,0.002,0.508,0.013,0.766,0.013c16.895,0,31.246-4.212,42.432-9.304
	c0.416-0.187,0.819-0.376,1.226-0.565c0.11-0.052,0.224-0.103,0.334-0.157c10.111-4.732,17.364-10.063,21.449-13.477l69.743,17.17
	c56.528,15.537,95.994,67.312,95.994,125.945v36.168H482.684z"/>
<g>
</g>
<g>
</g>
<g>
</g>
<g>
</g>
<g>
</g>
<g>
</g>
<g>
</g>
<g>
</g>
<g>
</g>
<g>
</g>
<g>
</g>
<g>
</g>
<g>
</g>
<g>
</g>
<g>
</g>
</svg>
